<svg width="9" height="8" viewBox="0 0 9 8" fill="none" xmlns="http://www.w3.org/2000/svg">
<path d="M0.134826 3.72809L4.7545 0.0438202C4.78996 0.0157303 4.8352 0 4.88289 0H5.96505C6.05554 0 6.09711 0.103371 6.02864 0.157303L1.74645 3.57303H8.90218C8.95598 3.57303 9 3.61348 9 3.66292V4.33708C9 4.38652 8.95598 4.42697 8.90218 4.42697H1.74768L6.02986 7.8427C6.09834 7.89775 6.05676 8 5.96628 8H4.84743C4.8242 8 4.80096 7.99214 4.78385 7.97753L0.134826 4.27191C0.092495 4.23809 0.0585537 4.19631 0.0352945 4.1494C0.0120354 4.10249 0 4.05155 0 4C0 3.94845 0.0120354 3.89751 0.0352945 3.8506C0.0585537 3.80369 0.092495 3.76191 0.134826 3.72809Z" fill="#627A87"/>
</svg>
