<svg width="15" height="15" viewBox="0 0 15 15" fill="none" xmlns="http://www.w3.org/2000/svg">
<g clip-path="url(#clip0_510_3781)">
<path d="M1.67566 6C1.24317 6.41195 1 6.8763 1 7.36752C1 9.06688 3.91015 10.4444 7.5 10.4444C11.0899 10.4444 14 9.06688 14 7.36752C14 6.8763 13.7568 6.41195 13.3244 6M1.67566 9.55556C1.24317 9.96753 1 10.4318 1 10.9231C1 12.6224 3.91015 14 7.5 14C11.0899 14 14 12.6224 14 10.9231C14 10.4318 13.7568 9.96753 13.3244 9.55556" stroke="#141414" stroke-width="1.4"/>
<path d="M14 4C14 4.56855 13.548 5.3058 12.3197 5.95594C11.1338 6.58363 9.43134 7 7.5 7C5.56865 7 3.8662 6.58363 2.68034 5.95594C1.45206 5.3058 1 4.56855 1 4C1 3.43145 1.45206 2.6942 2.68034 2.04406C3.8662 1.41637 5.56865 1 7.5 1C9.43134 1 11.1338 1.41637 12.3197 2.04406C13.548 2.6942 14 3.43145 14 4Z" stroke="#141414" stroke-width="1.4"/>
</g>
<defs>
<clipPath id="clip0_510_3781">
<rect width="15" height="15" fill="white"/>
</clipPath>
</defs>
</svg>
