<svg width="17" height="17" viewBox="0 0 17 17" fill="none" xmlns="http://www.w3.org/2000/svg">
<path d="M2 15.5002H5.5C6.05229 15.5002 6.5 15.0525 6.5 14.5002V2C6.5 1.44772 6.05229 1 5.5 1H2C1.44772 1 1 1.44772 1 2V14.5002C1 15.0525 1.44772 15.5002 2 15.5002Z" stroke="#141414" stroke-width="1.5" stroke-linecap="round" stroke-linejoin="round"/>
<path d="M11 15.5002H14.5C15.0523 15.5002 15.5 15.0525 15.5 14.5002V2C15.5 1.44772 15.0523 1 14.5 1H11C10.4477 1 10 1.44772 10 2V14.5002C10 15.0525 10.4477 15.5002 11 15.5002Z" stroke="#141414" stroke-width="1.5" stroke-linecap="round" stroke-linejoin="round"/>
</svg>
