<svg width="20" height="20" viewBox="0 0 20 20" fill="none" xmlns="http://www.w3.org/2000/svg">
<path d="M4.5 5.75C4.5 5.15326 4.73705 4.58097 5.15901 4.15901C5.58097 3.73705 6.15326 3.5 6.75 3.5C7.34674 3.5 7.91903 3.73705 8.34099 4.15901C8.76295 4.58097 9 5.15326 9 5.75C9 6.34674 8.76295 6.91903 8.34099 7.34099C7.91903 7.76295 7.34674 8 6.75 8C6.15326 8 5.58097 7.76295 5.15901 7.34099C4.73705 6.91903 4.5 6.34674 4.5 5.75V5.75ZM6.75 2.5C5.88805 2.5 5.0614 2.84241 4.4519 3.4519C3.84241 4.0614 3.5 4.88805 3.5 5.75C3.5 6.61195 3.84241 7.4386 4.4519 8.0481C5.0614 8.65759 5.88805 9 6.75 9C7.61195 9 8.4386 8.65759 9.0481 8.0481C9.65759 7.4386 10 6.61195 10 5.75C10 4.88805 9.65759 4.0614 9.0481 3.4519C8.4386 2.84241 7.61195 2.5 6.75 2.5V2.5ZM1.5 12C1.5 11.4696 1.71071 10.9609 2.08579 10.5858C2.46086 10.2107 2.96957 10 3.5 10H10C10.3483 9.99972 10.6905 10.0904 10.993 10.263C10.716 10.493 10.462 10.749 10.235 11.028C10.158 11.0095 10.0792 11.0001 10 11H3.5C3.23478 11 2.98043 11.1054 2.79289 11.2929C2.60536 11.4804 2.5 11.7348 2.5 12V12.078L2.507 12.161C2.56118 12.6404 2.73219 13.0991 3.005 13.497C3.492 14.201 4.513 15 6.75 15C7.704 15 8.437 14.855 9.002 14.633C9.01 14.983 9.051 15.323 9.122 15.653C8.477 15.87 7.696 16 6.75 16C4.237 16 2.883 15.08 2.182 14.066C1.81282 13.5283 1.58263 12.9074 1.512 12.259C1.50602 12.2008 1.50202 12.1425 1.5 12.084V12V12ZM13 6.5C13 6.10218 13.158 5.72064 13.4393 5.43934C13.7206 5.15804 14.1022 5 14.5 5C14.8978 5 15.2794 5.15804 15.5607 5.43934C15.842 5.72064 16 6.10218 16 6.5C16 6.89782 15.842 7.27936 15.5607 7.56066C15.2794 7.84196 14.8978 8 14.5 8C14.1022 8 13.7206 7.84196 13.4393 7.56066C13.158 7.27936 13 6.89782 13 6.5ZM14.5 4C13.837 4 13.2011 4.26339 12.7322 4.73223C12.2634 5.20107 12 5.83696 12 6.5C12 7.16304 12.2634 7.79893 12.7322 8.26777C13.2011 8.73661 13.837 9 14.5 9C15.163 9 15.7989 8.73661 16.2678 8.26777C16.7366 7.79893 17 7.16304 17 6.5C17 5.83696 16.7366 5.20107 16.2678 4.73223C15.7989 4.26339 15.163 4 14.5 4V4ZM19 14.5C19 15.6935 18.5259 16.8381 17.682 17.682C16.8381 18.5259 15.6935 19 14.5 19C13.3065 19 12.1619 18.5259 11.318 17.682C10.4741 16.8381 10 15.6935 10 14.5C10 13.3065 10.4741 12.1619 11.318 11.318C12.1619 10.4741 13.3065 10 14.5 10C15.6935 10 16.8381 10.4741 17.682 11.318C18.5259 12.1619 19 13.3065 19 14.5V14.5ZM16.854 12.646C16.8076 12.5994 16.7524 12.5625 16.6916 12.5373C16.6309 12.5121 16.5658 12.4991 16.5 12.4991C16.4342 12.4991 16.3691 12.5121 16.3084 12.5373C16.2476 12.5625 16.1924 12.5994 16.146 12.646L13.5 15.293L12.854 14.646C12.7601 14.5521 12.6328 14.4994 12.5 14.4994C12.3672 14.4994 12.2399 14.5521 12.146 14.646C12.0521 14.7399 11.9994 14.8672 11.9994 15C11.9994 15.1328 12.0521 15.2601 12.146 15.354L13.146 16.354C13.1924 16.4006 13.2476 16.4375 13.3084 16.4627C13.3691 16.4879 13.4342 16.5009 13.5 16.5009C13.5658 16.5009 13.6309 16.4879 13.6916 16.4627C13.7524 16.4375 13.8076 16.4006 13.854 16.354L16.854 13.354C16.9006 13.3076 16.9375 13.2524 16.9627 13.1916C16.9879 13.1309 17.0009 13.0658 17.0009 13C17.0009 12.9342 16.9879 12.8691 16.9627 12.8084C16.9375 12.7476 16.9006 12.6924 16.854 12.646V12.646Z" fill="black"/>
</svg>
